<svg id="Group_6562" data-name="Group 6562" xmlns="http://www.w3.org/2000/svg" width="73.555" height="84.959" viewBox="0 0 73.555 84.959">
  <path id="Path_12566" data-name="Path 12566" d="M80.9,19.935l-1.48-.123C62.579,18.389,45.2,6.545,45.036,6.44l-.878-.615-.878.615c-.163.105-17.543,11.949-34.388,13.372l-1.48.123-.033,1.6c0,.457-.211,45.458,35.949,68.723l.829.527.829-.527c36.16-23.265,35.949-68.266,35.949-68.723Z" transform="translate(-7.38 -5.825)" fill="#3cac72"/>
  <g id="Group_6119" data-name="Group 6119" transform="translate(19.852 27.076)">
    <path id="Path_12704" data-name="Path 12704" d="M.657.164,4.893,0,4.236,16.943,0,17.107Z" transform="translate(0 16.94) rotate(-45)" fill="#fff"/>
    <path id="Path_12705" data-name="Path 12705" d="M0,0,4.242.164,5.556,34,1.314,33.84Z" transform="matrix(-0.695, -0.719, 0.719, -0.695, 13.359, 27.618)" fill="#fff"/>
  </g>
  </svg>